SplineFontDB: 3.2
FontName: Pixel-Art
FullName: Pixel-Art Regular
FamilyName: Pixel-Art
Weight: Book
Copyright: Copyright GerardBouchard.com 2010
Version: 1.0
ItalicAngle: 0
UnderlinePosition: 77
UnderlineWidth: 51
Ascent: 819
Descent: 205
InvalidEm: 0
sfntRevision: 0x00010000
LayerCount: 2
Layer: 0 1 "Arri+AOgA-re" 1
Layer: 1 1 "Avant" 0
XUID: [1021 977 -1671479113 7077]
StyleMap: 0x0040
FSType: 4
OS2Version: 2
OS2_WeightWidthSlopeOnly: 0
OS2_UseTypoMetrics: 0
CreationTime: 1278936960
ModificationTime: 1723669666
PfmFamily: 81
TTFWeight: 400
TTFWidth: 5
LineGap: 0
VLineGap: 0
Panose: 0 0 4 0 0 0 0 0 0 0
OS2TypoAscent: 640
OS2TypoAOffset: 0
OS2TypoDescent: 0
OS2TypoDOffset: 0
OS2TypoLinegap: 0
OS2WinAscent: 768
OS2WinAOffset: 0
OS2WinDescent: 0
OS2WinDOffset: 0
HheadAscent: 768
HheadAOffset: 0
HheadDescent: 0
HheadDOffset: 0
OS2SubXSize: 512
OS2SubYSize: 512
OS2SubXOff: 0
OS2SubYOff: 0
OS2SupXSize: 512
OS2SupYSize: 512
OS2SupXOff: 0
OS2SupYOff: 512
OS2StrikeYSize: 51
OS2StrikeYPos: 204
OS2CapHeight: 640
OS2XHeight: 640
OS2Vendor: 'FSTR'
OS2CodePages: 00000001.00000000
OS2UnicodeRanges: 80000001.00000000.00000000.00000000
DEI: 91125
ShortTable: maxp 16
  1
  0
  78
  24
  5
  0
  0
  2
  0
  0
  0
  0
  0
  0
  0
  0
EndShort
LangName: 1033 "" "" "Regular" "FontStruct Pixel-Art" "" "Version 1.0" "" "FontStruct is a trademark of FSI FontShop International GmbH" "http://fontstruct.fontshop.com" "GerardBouchard.com" "+IBwA-Pixel-Art+IB0A was built with FontStruct+AAoA" "http://www.fontshop.com" "http://fontstruct.fontshop.com/fontstructions/show/332304" "Creative Commons Attribution Non-commercial No Derivatives" "http://creativecommons.org/licenses/by-nc-nd/3.0/" "" "" "" "" "Five big quacking zephyrs jolt my wax bed"
Encoding: UnicodeBmp
UnicodeInterp: none
NameList: AGL For New Fonts
DisplaySize: -48
AntiAlias: 1
FitToEm: 0
WinInfo: 0 38 13
BeginChars: 65537 78

StartChar: .notdef
Encoding: 65536 -1 0
Width: 0
GlyphClass: 1
Flags: W
LayerCount: 2
Fore
SplineSet
320 90 m 1,0,-1
 320 192 l 1,1,-1
 218 192 l 1,2,-1
 218 90 l 1,3,-1
 320 90 l 1,0,-1
421 209 m 1,4,-1
 421 311 l 1,5,-1
 218 311 l 1,6,-1
 218 209 l 1,7,-1
 421 209 l 1,4,-1
320 328 m 1,8,-1
 320 430 l 1,9,-1
 218 430 l 1,10,-1
 218 328 l 1,11,-1
 320 328 l 1,8,-1
421 447 m 1,12,-1
 421 548 l 1,13,-1
 320 548 l 2,14,15
 277 548 277 548 248 519 c 0,16,17
 218 488 218 488 218 447 c 1,18,-1
 421 447 l 1,12,-1
0 0 m 1,19,-1
 0 640 l 1,20,-1
 640 640 l 1,21,-1
 640 0 l 1,22,-1
 0 0 l 1,19,-1
EndSplineSet
EndChar

StartChar: exclam
Encoding: 33 33 4
Width: 512
GlyphClass: 1
Flags: W
LayerCount: 2
Fore
SplineSet
256 0 m 1,0,-1
 256 128 l 1,1,-1
 384 128 l 1,2,-1
 384 0 l 1,3,-1
 256 0 l 1,0,-1
256 256 m 1,4,-1
 256 640 l 1,5,-1
 384 640 l 1,6,-1
 384 256 l 1,7,-1
 256 256 l 1,4,-1
EndSplineSet
EndChar

StartChar: quotesingle
Encoding: 39 39 5
Width: 640
GlyphClass: 1
Flags: W
LayerCount: 2
Fore
SplineSet
256 384 m 1,0,-1
 256 512 l 1,1,-1
 384 512 l 1,2,-1
 384 768 l 1,3,-1
 512 768 l 1,4,-1
 512 384 l 1,5,-1
 256 384 l 1,0,-1
EndSplineSet
EndChar

StartChar: asterisk
Encoding: 42 42 6
Width: 768
GlyphClass: 1
Flags: W
LayerCount: 2
Fore
SplineSet
576 512 m 1,0,1
 549 512 549 512 530 530 c 0,2,3
 512 549 512 549 512 576 c 0,4,5
 512 602 512 602 530 621 c 0,6,7
 549 640 549 640 576 640 c 0,8,9
 602 640 602 640 621 621 c 256,10,11
 640 602 640 602 640 576 c 0,12,13
 640 549 640 549 621 530 c 0,14,15
 602 512 602 512 576 512 c 1,16,-1
 576 512 l 1,0,1
EndSplineSet
EndChar

StartChar: comma
Encoding: 44 44 7
Width: 512
GlyphClass: 1
Flags: W
LayerCount: 2
Fore
SplineSet
0 0 m 1,0,-1
 0 128 l 1,1,-1
 256 128 l 1,2,-1
 256 384 l 1,3,-1
 384 384 l 1,4,-1
 384 0 l 1,5,-1
 0 0 l 1,0,-1
EndSplineSet
EndChar

StartChar: period
Encoding: 46 46 8
Width: 256
GlyphClass: 1
Flags: W
LayerCount: 2
Fore
SplineSet
0 0 m 1,0,-1
 0 128 l 1,1,-1
 128 128 l 1,2,-1
 128 0 l 1,3,-1
 0 0 l 1,0,-1
EndSplineSet
EndChar

StartChar: zero
Encoding: 48 48 9
Width: 640
GlyphClass: 1
Flags: W
LayerCount: 2
Fore
SplineSet
384 128 m 1,0,-1
 384 512 l 1,1,-1
 128 512 l 1,2,-1
 128 128 l 1,3,-1
 384 128 l 1,0,-1
0 0 m 1,4,-1
 0 640 l 1,5,-1
 512 640 l 1,6,-1
 512 0 l 1,7,-1
 0 0 l 1,4,-1
EndSplineSet
EndChar

StartChar: one
Encoding: 49 49 10
Width: 640
GlyphClass: 1
Flags: W
LayerCount: 2
Fore
SplineSet
384 0 m 1,0,-1
 384 512 l 1,1,-1
 222 510 l 1,2,-1
 222 642 l 5,3,-1
 512 640 l 1,4,-1
 512 0 l 1,5,-1
 384 0 l 1,0,-1
EndSplineSet
EndChar

StartChar: two
Encoding: 50 50 11
Width: 640
GlyphClass: 1
Flags: W
LayerCount: 2
Fore
SplineSet
0 0 m 1,0,-1
 0 384 l 1,1,-1
 384 384 l 1,2,-1
 384 512 l 1,3,-1
 0 512 l 1,4,-1
 0 640 l 1,5,-1
 512 640 l 1,6,-1
 512 256 l 1,7,-1
 128 256 l 1,8,-1
 128 128 l 1,9,-1
 512 128 l 1,10,-1
 512 0 l 1,11,-1
 0 0 l 1,0,-1
EndSplineSet
EndChar

StartChar: three
Encoding: 51 51 12
Width: 640
GlyphClass: 1
Flags: W
LayerCount: 2
Fore
SplineSet
0 0 m 1,0,-1
 0 128 l 1,1,-1
 384 128 l 1,2,-1
 384 256 l 1,3,-1
 128 256 l 1,4,-1
 128 384 l 1,5,-1
 384 384 l 1,6,-1
 384 512 l 1,7,-1
 0 512 l 1,8,-1
 0 640 l 1,9,-1
 512 640 l 1,10,-1
 512 0 l 1,11,-1
 0 0 l 1,0,-1
EndSplineSet
EndChar

StartChar: four
Encoding: 52 52 13
Width: 640
GlyphClass: 1
Flags: W
LayerCount: 2
Fore
SplineSet
256 0 m 1,0,-1
 256 256 l 1,1,-1
 0 256 l 1,2,-1
 0 640 l 1,3,-1
 128 640 l 1,4,-1
 128 384 l 1,5,-1
 256 384 l 1,6,-1
 256 512 l 1,7,-1
 384 512 l 1,8,-1
 384 384 l 1,9,-1
 512 384 l 1,10,-1
 512 256 l 1,11,-1
 384 256 l 1,12,-1
 384 0 l 1,13,-1
 256 0 l 1,0,-1
EndSplineSet
EndChar

StartChar: five
Encoding: 53 53 14
Width: 640
GlyphClass: 1
Flags: W
LayerCount: 2
Fore
SplineSet
0 0 m 1,0,-1
 0 128 l 1,1,-1
 384 128 l 1,2,-1
 384 0 l 1,3,-1
 0 0 l 1,0,-1
384 128 m 1,4,-1
 384 256 l 1,5,-1
 512 256 l 1,6,-1
 512 128 l 1,7,-1
 384 128 l 1,4,-1
0 256 m 1,8,-1
 0 640 l 1,9,-1
 512 640 l 1,10,-1
 512 512 l 1,11,-1
 128 512 l 1,12,-1
 128 384 l 1,13,-1
 384 384 l 1,14,-1
 384 256 l 1,15,-1
 0 256 l 1,8,-1
EndSplineSet
EndChar

StartChar: six
Encoding: 54 54 15
Width: 640
GlyphClass: 1
Flags: W
LayerCount: 2
Fore
SplineSet
384 128 m 1,0,-1
 384 256 l 1,1,-1
 128 256 l 1,2,-1
 128 128 l 1,3,-1
 384 128 l 1,0,-1
0 0 m 1,4,-1
 0 640 l 1,5,-1
 512 640 l 1,6,-1
 512 512 l 1,7,-1
 128 512 l 1,8,-1
 128 384 l 1,9,-1
 512 384 l 1,10,-1
 512 0 l 1,11,-1
 0 0 l 1,4,-1
EndSplineSet
EndChar

StartChar: seven
Encoding: 55 55 16
Width: 768
GlyphClass: 1
Flags: W
LayerCount: 2
Fore
SplineSet
384 0 m 1,0,-1
 384 256 l 1,1,-1
 128 256 l 1,2,-1
 128 384 l 1,3,-1
 384 384 l 1,4,-1
 384 512 l 1,5,-1
 0 512 l 1,6,-1
 0 640 l 1,7,-1
 512 640 l 1,8,-1
 512 384 l 1,9,-1
 640 384 l 1,10,-1
 640 256 l 1,11,-1
 512 256 l 1,12,-1
 512 0 l 1,13,-1
 384 0 l 1,0,-1
EndSplineSet
EndChar

StartChar: eight
Encoding: 56 56 17
Width: 640
GlyphClass: 1
Flags: W
LayerCount: 2
Fore
SplineSet
384 128 m 1,0,-1
 384 256 l 1,1,-1
 128 256 l 1,2,-1
 128 128 l 1,3,-1
 384 128 l 1,0,-1
384 384 m 1,4,-1
 384 512 l 1,5,-1
 128 512 l 1,6,-1
 128 384 l 1,7,-1
 384 384 l 1,4,-1
0 0 m 1,8,-1
 0 640 l 1,9,-1
 512 640 l 1,10,-1
 512 0 l 1,11,-1
 0 0 l 1,8,-1
EndSplineSet
EndChar

StartChar: nine
Encoding: 57 57 18
Width: 640
GlyphClass: 1
Flags: W
LayerCount: 2
Fore
SplineSet
384 384 m 1,0,-1
 384 512 l 1,1,-1
 128 512 l 1,2,-1
 128 384 l 1,3,-1
 384 384 l 1,0,-1
0 0 m 1,4,-1
 0 128 l 1,5,-1
 384 128 l 1,6,-1
 384 256 l 1,7,-1
 0 256 l 1,8,-1
 0 640 l 1,9,-1
 512 640 l 1,10,-1
 512 0 l 1,11,-1
 0 0 l 1,4,-1
EndSplineSet
EndChar

StartChar: question
Encoding: 63 63 19
Width: 768
GlyphClass: 1
Flags: W
LayerCount: 2
Fore
SplineSet
256 0 m 1,0,-1
 256 128 l 1,1,-1
 384 128 l 1,2,-1
 384 0 l 1,3,-1
 256 0 l 1,0,-1
256 256 m 1,4,-1
 256 384 l 1,5,-1
 512 384 l 1,6,-1
 512 512 l 1,7,-1
 0 512 l 1,8,-1
 0 640 l 1,9,-1
 640 640 l 1,10,-1
 640 256 l 1,11,-1
 256 256 l 1,4,-1
EndSplineSet
EndChar

StartChar: A
Encoding: 65 65 20
Width: 640
GlyphClass: 1
Flags: W
LayerCount: 2
Fore
SplineSet
384 256 m 1,0,-1
 384 512 l 1,1,-1
 128 512 l 1,2,-1
 128 256 l 1,3,-1
 384 256 l 1,0,-1
0 0 m 1,4,-1
 0 640 l 1,5,-1
 512 640 l 1,6,-1
 512 0 l 1,7,-1
 384 0 l 1,8,-1
 384 128 l 1,9,-1
 128 128 l 1,10,-1
 128 0 l 1,11,-1
 0 0 l 1,4,-1
EndSplineSet
EndChar

StartChar: B
Encoding: 66 66 21
Width: 768
GlyphClass: 1
Flags: W
LayerCount: 2
Fore
SplineSet
512 128 m 1,0,-1
 512 256 l 1,1,-1
 640 256 l 1,2,-1
 640 128 l 1,3,-1
 512 128 l 1,0,-1
512 384 m 1,4,-1
 512 512 l 1,5,-1
 640 512 l 1,6,-1
 640 384 l 1,7,-1
 512 384 l 1,4,-1
0 0 m 1,8,-1
 0 640 l 1,9,-1
 512 640 l 1,10,-1
 512 512 l 1,11,-1
 128 512 l 1,12,-1
 128 384 l 1,13,-1
 512 384 l 1,14,-1
 512 256 l 1,15,-1
 128 256 l 1,16,-1
 128 128 l 1,17,-1
 512 128 l 1,18,-1
 512 0 l 1,19,-1
 0 0 l 1,8,-1
EndSplineSet
EndChar

StartChar: C
Encoding: 67 67 22
Width: 640
GlyphClass: 1
Flags: W
LayerCount: 2
Fore
SplineSet
0 0 m 1,0,-1
 0 640 l 1,1,-1
 512 640 l 1,2,-1
 512 512 l 1,3,-1
 128 512 l 1,4,-1
 128 128 l 1,5,-1
 512 128 l 1,6,-1
 512 0 l 1,7,-1
 0 0 l 1,0,-1
EndSplineSet
EndChar

StartChar: D
Encoding: 68 68 23
Width: 768
GlyphClass: 1
Flags: W
LayerCount: 2
Fore
SplineSet
512 128 m 1,0,-1
 512 512 l 1,1,-1
 640 512 l 1,2,-1
 640 128 l 1,3,-1
 512 128 l 1,0,-1
0 0 m 1,4,-1
 0 640 l 1,5,-1
 512 640 l 1,6,-1
 512 512 l 1,7,-1
 128 512 l 1,8,-1
 128 128 l 1,9,-1
 512 128 l 1,10,-1
 512 0 l 1,11,-1
 0 0 l 1,4,-1
EndSplineSet
EndChar

StartChar: E
Encoding: 69 69 24
Width: 640
GlyphClass: 1
Flags: W
LayerCount: 2
Fore
SplineSet
0 0 m 1,0,-1
 0 640 l 1,1,-1
 512 640 l 1,2,-1
 512 512 l 1,3,-1
 128 512 l 1,4,-1
 128 384 l 1,5,-1
 384 384 l 1,6,-1
 384 256 l 1,7,-1
 128 256 l 1,8,-1
 128 128 l 1,9,-1
 512 128 l 1,10,-1
 512 0 l 1,11,-1
 0 0 l 1,0,-1
EndSplineSet
EndChar

StartChar: F
Encoding: 70 70 25
Width: 640
GlyphClass: 1
Flags: W
LayerCount: 2
Fore
SplineSet
0 0 m 1,0,-1
 0 640 l 1,1,-1
 512 640 l 1,2,-1
 512 512 l 1,3,-1
 128 512 l 1,4,-1
 128 384 l 1,5,-1
 384 384 l 1,6,-1
 384 256 l 1,7,-1
 128 256 l 1,8,-1
 128 0 l 1,9,-1
 0 0 l 1,0,-1
EndSplineSet
EndChar

StartChar: G
Encoding: 71 71 26
Width: 640
GlyphClass: 1
Flags: W
LayerCount: 2
Fore
SplineSet
0 0 m 1,0,-1
 0 640 l 1,1,-1
 512 640 l 1,2,-1
 512 512 l 1,3,-1
 128 512 l 1,4,-1
 128 128 l 1,5,-1
 384 128 l 1,6,-1
 384 256 l 1,7,-1
 256 256 l 1,8,-1
 256 384 l 1,9,-1
 512 384 l 1,10,-1
 512 0 l 1,11,-1
 0 0 l 1,0,-1
EndSplineSet
EndChar

StartChar: H
Encoding: 72 72 27
Width: 640
GlyphClass: 1
Flags: W
LayerCount: 2
Fore
SplineSet
0 0 m 1,0,-1
 0 640 l 1,1,-1
 128 640 l 1,2,-1
 128 384 l 1,3,-1
 384 384 l 1,4,-1
 384 640 l 1,5,-1
 512 640 l 1,6,-1
 512 0 l 1,7,-1
 384 0 l 1,8,-1
 384 256 l 1,9,-1
 128 256 l 1,10,-1
 128 0 l 1,11,-1
 0 0 l 1,0,-1
EndSplineSet
EndChar

StartChar: I
Encoding: 73 73 28
Width: 256
GlyphClass: 1
Flags: W
LayerCount: 2
Fore
SplineSet
0 0 m 1,0,-1
 0 640 l 1,1,-1
 128 640 l 1,2,-1
 128 0 l 1,3,-1
 0 0 l 1,0,-1
EndSplineSet
EndChar

StartChar: J
Encoding: 74 74 29
Width: 768
GlyphClass: 1
Flags: W
LayerCount: 2
Fore
SplineSet
0 0 m 1,0,-1
 0 128 l 1,1,-1
 256 128 l 1,2,-1
 256 512 l 1,3,-1
 0 512 l 1,4,-1
 0 640 l 1,5,-1
 640 640 l 1,6,-1
 640 512 l 1,7,-1
 384 512 l 1,8,-1
 384 0 l 1,9,-1
 0 0 l 1,0,-1
EndSplineSet
EndChar

StartChar: K
Encoding: 75 75 30
Width: 640
GlyphClass: 1
Flags: W
LayerCount: 2
Fore
SplineSet
384 0 m 1,0,-1
 384 128 l 1,1,-1
 512 128 l 1,2,-1
 512 0 l 1,3,-1
 384 0 l 1,0,-1
256 128 m 1,4,-1
 256 256 l 1,5,-1
 384 256 l 1,6,-1
 384 128 l 1,7,-1
 256 128 l 1,4,-1
256 384 m 1,8,-1
 256 512 l 1,9,-1
 384 512 l 1,10,-1
 384 384 l 1,11,-1
 256 384 l 1,8,-1
0 0 m 1,12,-1
 0 640 l 1,13,-1
 128 640 l 1,14,-1
 128 384 l 1,15,-1
 256 384 l 1,16,-1
 256 256 l 1,17,-1
 128 256 l 1,18,-1
 128 0 l 1,19,-1
 0 0 l 1,12,-1
384 512 m 1,20,-1
 384 640 l 1,21,-1
 512 640 l 1,22,-1
 512 512 l 1,23,-1
 384 512 l 1,20,-1
EndSplineSet
EndChar

StartChar: L
Encoding: 76 76 31
Width: 640
GlyphClass: 1
Flags: W
LayerCount: 2
Fore
SplineSet
0 0 m 1,0,-1
 0 640 l 1,1,-1
 128 640 l 1,2,-1
 128 128 l 1,3,-1
 512 128 l 1,4,-1
 512 0 l 1,5,-1
 0 0 l 1,0,-1
EndSplineSet
EndChar

StartChar: M
Encoding: 77 77 32
Width: 768
GlyphClass: 1
Flags: W
LayerCount: 2
Fore
SplineSet
0 0 m 1,0,-1
 0 640 l 1,1,-1
 640 640 l 1,2,-1
 640 0 l 1,3,-1
 512 0 l 1,4,-1
 512 512 l 1,5,-1
 384 512 l 1,6,-1
 384 0 l 1,7,-1
 256 0 l 1,8,-1
 256 512 l 1,9,-1
 128 512 l 1,10,-1
 128 0 l 1,11,-1
 0 0 l 1,0,-1
EndSplineSet
EndChar

StartChar: N
Encoding: 78 78 33
Width: 640
GlyphClass: 1
Flags: W
LayerCount: 2
Fore
SplineSet
0 0 m 1,0,-1
 0 640 l 1,1,-1
 512 640 l 1,2,-1
 512 0 l 1,3,-1
 384 0 l 1,4,-1
 384 512 l 1,5,-1
 128 512 l 1,6,-1
 128 0 l 1,7,-1
 0 0 l 1,0,-1
EndSplineSet
EndChar

StartChar: O
Encoding: 79 79 34
Width: 640
GlyphClass: 1
Flags: W
LayerCount: 2
Fore
SplineSet
384 128 m 1,0,-1
 384 512 l 1,1,-1
 128 512 l 1,2,-1
 128 128 l 1,3,-1
 384 128 l 1,0,-1
0 0 m 1,4,-1
 0 640 l 1,5,-1
 512 640 l 1,6,-1
 512 0 l 1,7,-1
 0 0 l 1,4,-1
EndSplineSet
EndChar

StartChar: P
Encoding: 80 80 35
Width: 640
GlyphClass: 1
Flags: W
LayerCount: 2
Fore
SplineSet
384 256 m 1,0,-1
 384 512 l 1,1,-1
 128 512 l 1,2,-1
 128 256 l 1,3,-1
 384 256 l 1,0,-1
0 0 m 1,4,-1
 0 640 l 1,5,-1
 512 640 l 1,6,-1
 512 128 l 1,7,-1
 128 128 l 1,8,-1
 128 0 l 1,9,-1
 0 0 l 1,4,-1
EndSplineSet
EndChar

StartChar: Q
Encoding: 81 81 36
Width: 768
GlyphClass: 1
Flags: W
LayerCount: 2
Fore
SplineSet
512 256 m 1,0,-1
 512 640 l 1,1,-1
 128 640 l 1,2,-1
 128 256 l 1,3,-1
 256 256 l 1,4,-1
 256 384 l 1,5,-1
 384 384 l 1,6,-1
 384 256 l 1,7,-1
 512 256 l 1,0,-1
256 0 m 1,8,-1
 256 128 l 1,9,-1
 0 128 l 1,10,-1
 0 768 l 1,11,-1
 640 768 l 1,12,-1
 640 128 l 1,13,-1
 384 128 l 1,14,-1
 384 0 l 1,15,-1
 256 0 l 1,8,-1
EndSplineSet
EndChar

StartChar: R
Encoding: 82 82 37
Width: 640
GlyphClass: 1
Flags: W
LayerCount: 2
Fore
SplineSet
384 0 m 1,0,-1
 384 128 l 1,1,-1
 512 128 l 1,2,-1
 512 0 l 1,3,-1
 384 0 l 1,0,-1
0 0 m 1,4,-1
 0 640 l 1,5,-1
 512 640 l 1,6,-1
 512 256 l 1,7,-1
 384 256 l 1,8,-1
 384 512 l 1,9,-1
 128 512 l 1,10,-1
 128 256 l 1,11,-1
 384 256 l 1,12,-1
 384 128 l 1,13,-1
 128 128 l 1,14,-1
 128 0 l 1,15,-1
 0 0 l 1,4,-1
EndSplineSet
EndChar

StartChar: S
Encoding: 83 83 38
Width: 640
GlyphClass: 1
Flags: W
LayerCount: 2
Fore
SplineSet
0 0 m 1,0,-1
 0 128 l 1,1,-1
 384 128 l 1,2,-1
 384 256 l 1,3,-1
 0 256 l 1,4,-1
 0 640 l 1,5,-1
 512 640 l 1,6,-1
 512 512 l 1,7,-1
 128 512 l 1,8,-1
 128 384 l 1,9,-1
 512 384 l 1,10,-1
 512 0 l 1,11,-1
 0 0 l 1,0,-1
EndSplineSet
EndChar

StartChar: T
Encoding: 84 84 39
Width: 768
GlyphClass: 1
Flags: W
LayerCount: 2
Fore
SplineSet
256 0 m 1,0,-1
 256 512 l 1,1,-1
 0 512 l 1,2,-1
 0 640 l 1,3,-1
 640 640 l 1,4,-1
 640 512 l 1,5,-1
 384 512 l 1,6,-1
 384 0 l 1,7,-1
 256 0 l 1,0,-1
EndSplineSet
EndChar

StartChar: U
Encoding: 85 85 40
Width: 640
GlyphClass: 1
Flags: W
LayerCount: 2
Fore
SplineSet
0 0 m 1,0,-1
 0 640 l 1,1,-1
 128 640 l 1,2,-1
 128 128 l 1,3,-1
 384 128 l 1,4,-1
 384 640 l 1,5,-1
 512 640 l 1,6,-1
 512 0 l 1,7,-1
 0 0 l 1,0,-1
EndSplineSet
EndChar

StartChar: V
Encoding: 86 86 41
Width: 640
GlyphClass: 1
Flags: W
LayerCount: 2
Fore
SplineSet
128 0 m 1,0,-1
 128 128 l 1,1,-1
 384 128 l 1,2,-1
 384 0 l 1,3,-1
 128 0 l 1,0,-1
0 128 m 1,4,-1
 0 640 l 1,5,-1
 128 640 l 1,6,-1
 128 128 l 1,7,-1
 0 128 l 1,4,-1
384 128 m 1,8,-1
 384 640 l 1,9,-1
 512 640 l 1,10,-1
 512 128 l 1,11,-1
 384 128 l 1,8,-1
EndSplineSet
EndChar

StartChar: W
Encoding: 87 87 42
Width: 768
GlyphClass: 1
Flags: W
LayerCount: 2
Fore
SplineSet
128 0 m 1,0,-1
 128 128 l 1,1,-1
 256 128 l 1,2,-1
 256 512 l 1,3,-1
 384 512 l 1,4,-1
 384 128 l 1,5,-1
 512 128 l 1,6,-1
 512 0 l 1,7,-1
 128 0 l 1,0,-1
0 128 m 1,8,-1
 0 640 l 1,9,-1
 128 640 l 1,10,-1
 128 128 l 1,11,-1
 0 128 l 1,8,-1
512 128 m 1,12,-1
 512 640 l 1,13,-1
 640 640 l 1,14,-1
 640 128 l 1,15,-1
 512 128 l 1,12,-1
EndSplineSet
EndChar

StartChar: X
Encoding: 88 88 43
Width: 512
GlyphClass: 1
Flags: W
LayerCount: 2
Fore
SplineSet
0 0 m 1,0,-1
 0 256 l 1,1,-1
 128 256 l 1,2,-1
 128 0 l 1,3,-1
 0 0 l 1,0,-1
256 0 m 1,4,-1
 256 256 l 1,5,-1
 384 256 l 1,6,-1
 384 0 l 1,7,-1
 256 0 l 1,4,-1
128 256 m 1,8,-1
 128 384 l 1,9,-1
 256 384 l 1,10,-1
 256 256 l 1,11,-1
 128 256 l 1,8,-1
0 384 m 1,12,-1
 0 640 l 1,13,-1
 128 640 l 1,14,-1
 128 384 l 1,15,-1
 0 384 l 1,12,-1
256 384 m 1,16,-1
 256 640 l 1,17,-1
 384 640 l 1,18,-1
 384 384 l 1,19,-1
 256 384 l 1,16,-1
EndSplineSet
EndChar

StartChar: Y
Encoding: 89 89 44
Width: 768
GlyphClass: 1
Flags: W
LayerCount: 2
Fore
SplineSet
256 0 m 1,0,-1
 256 128 l 1,1,-1
 0 128 l 1,2,-1
 0 640 l 1,3,-1
 128 640 l 1,4,-1
 128 256 l 1,5,-1
 512 256 l 1,6,-1
 512 640 l 1,7,-1
 640 640 l 1,8,-1
 640 128 l 1,9,-1
 384 128 l 1,10,-1
 384 0 l 1,11,-1
 256 0 l 1,0,-1
EndSplineSet
EndChar

StartChar: Z
Encoding: 90 90 45
Width: 768
GlyphClass: 1
Flags: W
LayerCount: 2
Fore
SplineSet
0 0 m 1,0,-1
 0 256 l 1,1,-1
 128 256 l 1,2,-1
 128 128 l 1,3,-1
 640 128 l 1,4,-1
 640 0 l 1,5,-1
 0 0 l 1,0,-1
128 256 m 1,6,-1
 128 384 l 1,7,-1
 512 384 l 1,8,-1
 512 256 l 1,9,-1
 128 256 l 1,6,-1
512 384 m 1,10,-1
 512 512 l 1,11,-1
 0 512 l 1,12,-1
 0 640 l 1,13,-1
 640 640 l 1,14,-1
 640 384 l 1,15,-1
 512 384 l 1,10,-1
EndSplineSet
EndChar

StartChar: bracketleft
Encoding: 91 91 46
Width: 512
GlyphClass: 1
Flags: W
LayerCount: 2
Fore
SplineSet
0 0 m 1,0,-1
 0 640 l 1,1,-1
 384 640 l 1,2,-1
 384 512 l 1,3,-1
 128 512 l 1,4,-1
 128 128 l 1,5,-1
 384 128 l 1,6,-1
 384 0 l 1,7,-1
 0 0 l 1,0,-1
EndSplineSet
EndChar

StartChar: bracketright
Encoding: 93 93 47
Width: 512
GlyphClass: 1
Flags: W
LayerCount: 2
Fore
SplineSet
0 0 m 1,0,-1
 0 128 l 1,1,-1
 256 128 l 1,2,-1
 256 512 l 1,3,-1
 0 512 l 1,4,-1
 0 640 l 1,5,-1
 384 640 l 1,6,-1
 384 0 l 1,7,-1
 0 0 l 1,0,-1
EndSplineSet
EndChar

StartChar: asciicircum
Encoding: 94 94 48
Width: 640
GlyphClass: 1
Flags: W
LayerCount: 2
Fore
SplineSet
128 384 m 1,0,-1
 128 512 l 1,1,-1
 256 512 l 1,2,-1
 256 384 l 1,3,-1
 128 384 l 1,0,-1
384 384 m 1,4,-1
 384 512 l 1,5,-1
 512 512 l 1,6,-1
 512 384 l 1,7,-1
 384 384 l 1,4,-1
256 512 m 1,8,-1
 256 640 l 1,9,-1
 384 640 l 1,10,-1
 384 512 l 1,11,-1
 256 512 l 1,8,-1
EndSplineSet
EndChar

StartChar: underscore
Encoding: 95 95 49
Width: 768
GlyphClass: 1
Flags: W
LayerCount: 2
Fore
SplineSet
0 0 m 1,0,-1
 0 128 l 1,1,-1
 640 128 l 1,2,-1
 640 0 l 1,3,-1
 0 0 l 1,0,-1
EndSplineSet
EndChar

StartChar: a
Encoding: 97 97 50
Width: 640
GlyphClass: 1
Flags: W
LayerCount: 2
Fore
SplineSet
384 256 m 1,0,-1
 384 512 l 1,1,-1
 128 512 l 1,2,-1
 128 256 l 1,3,-1
 384 256 l 1,0,-1
0 0 m 1,4,-1
 0 640 l 1,5,-1
 512 640 l 1,6,-1
 512 0 l 1,7,-1
 384 0 l 1,8,-1
 384 128 l 1,9,-1
 128 128 l 1,10,-1
 128 0 l 1,11,-1
 0 0 l 1,4,-1
EndSplineSet
EndChar

StartChar: b
Encoding: 98 98 51
Width: 768
GlyphClass: 1
Flags: W
LayerCount: 2
Fore
SplineSet
512 128 m 1,0,-1
 512 256 l 1,1,-1
 640 256 l 1,2,-1
 640 128 l 1,3,-1
 512 128 l 1,0,-1
512 384 m 1,4,-1
 512 512 l 1,5,-1
 640 512 l 1,6,-1
 640 384 l 1,7,-1
 512 384 l 1,4,-1
0 0 m 1,8,-1
 0 640 l 1,9,-1
 512 640 l 1,10,-1
 512 512 l 1,11,-1
 128 512 l 1,12,-1
 128 384 l 1,13,-1
 512 384 l 1,14,-1
 512 256 l 1,15,-1
 128 256 l 1,16,-1
 128 128 l 1,17,-1
 512 128 l 1,18,-1
 512 0 l 1,19,-1
 0 0 l 1,8,-1
EndSplineSet
EndChar

StartChar: c
Encoding: 99 99 52
Width: 640
GlyphClass: 1
Flags: W
LayerCount: 2
Fore
SplineSet
0 0 m 1,0,-1
 0 640 l 1,1,-1
 512 640 l 1,2,-1
 512 512 l 1,3,-1
 128 512 l 1,4,-1
 128 128 l 1,5,-1
 512 128 l 1,6,-1
 512 0 l 1,7,-1
 0 0 l 1,0,-1
EndSplineSet
EndChar

StartChar: d
Encoding: 100 100 53
Width: 768
GlyphClass: 1
Flags: W
LayerCount: 2
Fore
SplineSet
512 128 m 1,0,-1
 512 512 l 1,1,-1
 640 512 l 1,2,-1
 640 128 l 1,3,-1
 512 128 l 1,0,-1
0 0 m 1,4,-1
 0 640 l 1,5,-1
 512 640 l 1,6,-1
 512 512 l 1,7,-1
 128 512 l 1,8,-1
 128 128 l 1,9,-1
 512 128 l 1,10,-1
 512 0 l 1,11,-1
 0 0 l 1,4,-1
EndSplineSet
EndChar

StartChar: e
Encoding: 101 101 54
Width: 640
GlyphClass: 1
Flags: W
LayerCount: 2
Fore
SplineSet
0 0 m 1,0,-1
 0 640 l 1,1,-1
 512 640 l 1,2,-1
 512 512 l 1,3,-1
 128 512 l 1,4,-1
 128 384 l 1,5,-1
 384 384 l 1,6,-1
 384 256 l 1,7,-1
 128 256 l 1,8,-1
 128 128 l 1,9,-1
 512 128 l 1,10,-1
 512 0 l 1,11,-1
 0 0 l 1,0,-1
EndSplineSet
EndChar

StartChar: f
Encoding: 102 102 55
Width: 640
GlyphClass: 1
Flags: W
LayerCount: 2
Fore
SplineSet
0 0 m 1,0,-1
 0 640 l 1,1,-1
 512 640 l 1,2,-1
 512 512 l 1,3,-1
 128 512 l 1,4,-1
 128 384 l 1,5,-1
 384 384 l 1,6,-1
 384 256 l 1,7,-1
 128 256 l 1,8,-1
 128 0 l 1,9,-1
 0 0 l 1,0,-1
EndSplineSet
EndChar

StartChar: g
Encoding: 103 103 56
Width: 640
GlyphClass: 1
Flags: W
LayerCount: 2
Fore
SplineSet
0 0 m 1,0,-1
 0 640 l 1,1,-1
 512 640 l 1,2,-1
 512 512 l 1,3,-1
 128 512 l 1,4,-1
 128 128 l 1,5,-1
 384 128 l 1,6,-1
 384 256 l 1,7,-1
 256 256 l 1,8,-1
 256 384 l 1,9,-1
 512 384 l 1,10,-1
 512 0 l 1,11,-1
 0 0 l 1,0,-1
EndSplineSet
EndChar

StartChar: h
Encoding: 104 104 57
Width: 640
GlyphClass: 1
Flags: W
LayerCount: 2
Fore
SplineSet
0 0 m 1,0,-1
 0 640 l 1,1,-1
 128 640 l 1,2,-1
 128 384 l 1,3,-1
 384 384 l 1,4,-1
 384 640 l 1,5,-1
 512 640 l 1,6,-1
 512 0 l 1,7,-1
 384 0 l 1,8,-1
 384 256 l 1,9,-1
 128 256 l 1,10,-1
 128 0 l 1,11,-1
 0 0 l 1,0,-1
EndSplineSet
EndChar

StartChar: i
Encoding: 105 105 58
Width: 256
GlyphClass: 1
Flags: W
LayerCount: 2
Fore
SplineSet
0 0 m 1,0,-1
 0 640 l 1,1,-1
 128 640 l 1,2,-1
 128 0 l 1,3,-1
 0 0 l 1,0,-1
EndSplineSet
EndChar

StartChar: j
Encoding: 106 106 59
Width: 768
GlyphClass: 1
Flags: W
LayerCount: 2
Fore
SplineSet
0 0 m 1,0,-1
 0 128 l 1,1,-1
 256 128 l 1,2,-1
 256 512 l 1,3,-1
 0 512 l 1,4,-1
 0 640 l 1,5,-1
 640 640 l 1,6,-1
 640 512 l 1,7,-1
 384 512 l 1,8,-1
 384 0 l 1,9,-1
 0 0 l 1,0,-1
EndSplineSet
EndChar

StartChar: k
Encoding: 107 107 60
Width: 640
GlyphClass: 1
Flags: W
LayerCount: 2
Fore
SplineSet
384 0 m 1,0,-1
 384 128 l 1,1,-1
 512 128 l 1,2,-1
 512 0 l 1,3,-1
 384 0 l 1,0,-1
256 128 m 1,4,-1
 256 256 l 1,5,-1
 384 256 l 1,6,-1
 384 128 l 1,7,-1
 256 128 l 1,4,-1
256 384 m 1,8,-1
 256 512 l 1,9,-1
 384 512 l 1,10,-1
 384 384 l 1,11,-1
 256 384 l 1,8,-1
0 0 m 1,12,-1
 0 640 l 1,13,-1
 128 640 l 1,14,-1
 128 384 l 1,15,-1
 256 384 l 1,16,-1
 256 256 l 1,17,-1
 128 256 l 1,18,-1
 128 0 l 1,19,-1
 0 0 l 1,12,-1
384 512 m 1,20,-1
 384 640 l 1,21,-1
 512 640 l 1,22,-1
 512 512 l 1,23,-1
 384 512 l 1,20,-1
EndSplineSet
EndChar

StartChar: l
Encoding: 108 108 61
Width: 640
GlyphClass: 1
Flags: W
LayerCount: 2
Fore
SplineSet
0 0 m 1,0,-1
 0 640 l 1,1,-1
 128 640 l 1,2,-1
 128 128 l 1,3,-1
 512 128 l 1,4,-1
 512 0 l 1,5,-1
 0 0 l 1,0,-1
EndSplineSet
EndChar

StartChar: m
Encoding: 109 109 62
Width: 768
GlyphClass: 1
Flags: W
LayerCount: 2
Fore
SplineSet
0 0 m 1,0,-1
 0 640 l 1,1,-1
 640 640 l 1,2,-1
 640 0 l 1,3,-1
 512 0 l 1,4,-1
 512 512 l 1,5,-1
 384 512 l 1,6,-1
 384 128 l 1,7,-1
 256 128 l 1,8,-1
 256 512 l 1,9,-1
 128 512 l 1,10,-1
 128 0 l 1,11,-1
 0 0 l 1,0,-1
EndSplineSet
EndChar

StartChar: n
Encoding: 110 110 63
Width: 640
GlyphClass: 1
Flags: W
LayerCount: 2
Fore
SplineSet
0 0 m 1,0,-1
 0 640 l 1,1,-1
 512 640 l 1,2,-1
 512 0 l 1,3,-1
 384 0 l 1,4,-1
 384 512 l 1,5,-1
 128 512 l 1,6,-1
 128 0 l 1,7,-1
 0 0 l 1,0,-1
EndSplineSet
EndChar

StartChar: o
Encoding: 111 111 64
Width: 640
GlyphClass: 1
Flags: W
LayerCount: 2
Fore
SplineSet
384 128 m 1,0,-1
 384 512 l 1,1,-1
 128 512 l 1,2,-1
 128 128 l 1,3,-1
 384 128 l 1,0,-1
0 0 m 1,4,-1
 0 640 l 1,5,-1
 512 640 l 1,6,-1
 512 0 l 1,7,-1
 0 0 l 1,4,-1
EndSplineSet
EndChar

StartChar: p
Encoding: 112 112 65
Width: 640
GlyphClass: 1
Flags: W
LayerCount: 2
Fore
SplineSet
384 256 m 1,0,-1
 384 512 l 1,1,-1
 128 512 l 1,2,-1
 128 256 l 1,3,-1
 384 256 l 1,0,-1
0 0 m 1,4,-1
 0 640 l 1,5,-1
 512 640 l 1,6,-1
 512 128 l 1,7,-1
 128 128 l 1,8,-1
 128 0 l 1,9,-1
 0 0 l 1,4,-1
EndSplineSet
EndChar

StartChar: q
Encoding: 113 113 66
Width: 768
GlyphClass: 1
Flags: W
LayerCount: 2
Fore
SplineSet
512 256 m 1,0,-1
 512 640 l 1,1,-1
 128 640 l 1,2,-1
 128 256 l 1,3,-1
 256 256 l 1,4,-1
 256 384 l 1,5,-1
 384 384 l 1,6,-1
 384 256 l 1,7,-1
 512 256 l 1,0,-1
256 0 m 1,8,-1
 256 128 l 1,9,-1
 0 128 l 1,10,-1
 0 768 l 1,11,-1
 640 768 l 1,12,-1
 640 128 l 1,13,-1
 384 128 l 1,14,-1
 384 0 l 1,15,-1
 256 0 l 1,8,-1
EndSplineSet
EndChar

StartChar: r
Encoding: 114 114 67
Width: 640
GlyphClass: 1
Flags: W
LayerCount: 2
Fore
SplineSet
384 0 m 1,0,-1
 384 128 l 1,1,-1
 512 128 l 1,2,-1
 512 0 l 1,3,-1
 384 0 l 1,0,-1
0 0 m 1,4,-1
 0 640 l 1,5,-1
 512 640 l 1,6,-1
 512 256 l 1,7,-1
 384 256 l 1,8,-1
 384 512 l 1,9,-1
 128 512 l 1,10,-1
 128 256 l 1,11,-1
 384 256 l 1,12,-1
 384 128 l 1,13,-1
 128 128 l 1,14,-1
 128 0 l 1,15,-1
 0 0 l 1,4,-1
EndSplineSet
EndChar

StartChar: s
Encoding: 115 115 68
Width: 640
GlyphClass: 1
Flags: W
LayerCount: 2
Fore
SplineSet
0 0 m 1,0,-1
 0 128 l 1,1,-1
 384 128 l 1,2,-1
 384 256 l 1,3,-1
 0 256 l 1,4,-1
 0 640 l 1,5,-1
 512 640 l 1,6,-1
 512 512 l 1,7,-1
 128 512 l 1,8,-1
 128 384 l 1,9,-1
 512 384 l 1,10,-1
 512 0 l 1,11,-1
 0 0 l 1,0,-1
EndSplineSet
EndChar

StartChar: t
Encoding: 116 116 69
Width: 768
GlyphClass: 1
Flags: W
LayerCount: 2
Fore
SplineSet
256 0 m 1,0,-1
 256 512 l 1,1,-1
 0 512 l 1,2,-1
 0 640 l 1,3,-1
 640 640 l 1,4,-1
 640 512 l 1,5,-1
 384 512 l 1,6,-1
 384 0 l 1,7,-1
 256 0 l 1,0,-1
EndSplineSet
EndChar

StartChar: u
Encoding: 117 117 70
Width: 640
GlyphClass: 1
Flags: W
LayerCount: 2
Fore
SplineSet
0 0 m 1,0,-1
 0 640 l 1,1,-1
 128 640 l 1,2,-1
 128 128 l 1,3,-1
 384 128 l 1,4,-1
 384 640 l 1,5,-1
 512 640 l 1,6,-1
 512 0 l 1,7,-1
 0 0 l 1,0,-1
EndSplineSet
EndChar

StartChar: v
Encoding: 118 118 71
Width: 640
GlyphClass: 1
Flags: W
LayerCount: 2
Fore
SplineSet
128 0 m 1,0,-1
 128 128 l 1,1,-1
 384 128 l 1,2,-1
 384 0 l 1,3,-1
 128 0 l 1,0,-1
0 128 m 1,4,-1
 0 640 l 1,5,-1
 128 640 l 1,6,-1
 128 128 l 1,7,-1
 0 128 l 1,4,-1
384 128 m 1,8,-1
 384 640 l 1,9,-1
 512 640 l 1,10,-1
 512 128 l 1,11,-1
 384 128 l 1,8,-1
EndSplineSet
EndChar

StartChar: w
Encoding: 119 119 72
Width: 768
GlyphClass: 1
Flags: W
LayerCount: 2
Fore
SplineSet
128 0 m 1,0,-1
 128 128 l 1,1,-1
 256 128 l 1,2,-1
 256 512 l 1,3,-1
 384 512 l 1,4,-1
 384 128 l 1,5,-1
 512 128 l 1,6,-1
 512 0 l 1,7,-1
 128 0 l 1,0,-1
0 128 m 1,8,-1
 0 640 l 1,9,-1
 128 640 l 1,10,-1
 128 128 l 1,11,-1
 0 128 l 1,8,-1
512 128 m 1,12,-1
 512 640 l 1,13,-1
 640 640 l 1,14,-1
 640 128 l 1,15,-1
 512 128 l 1,12,-1
EndSplineSet
EndChar

StartChar: x
Encoding: 120 120 73
Width: 512
GlyphClass: 1
Flags: W
LayerCount: 2
Fore
SplineSet
0 0 m 1,0,-1
 0 256 l 1,1,-1
 128 256 l 1,2,-1
 128 0 l 1,3,-1
 0 0 l 1,0,-1
256 0 m 1,4,-1
 256 256 l 1,5,-1
 384 256 l 1,6,-1
 384 0 l 1,7,-1
 256 0 l 1,4,-1
128 256 m 1,8,-1
 128 384 l 1,9,-1
 256 384 l 1,10,-1
 256 256 l 1,11,-1
 128 256 l 1,8,-1
0 384 m 1,12,-1
 0 640 l 1,13,-1
 128 640 l 1,14,-1
 128 384 l 1,15,-1
 0 384 l 1,12,-1
256 384 m 1,16,-1
 256 640 l 1,17,-1
 384 640 l 1,18,-1
 384 384 l 1,19,-1
 256 384 l 1,16,-1
EndSplineSet
EndChar

StartChar: y
Encoding: 121 121 74
Width: 768
GlyphClass: 1
Flags: W
LayerCount: 2
Fore
SplineSet
256 0 m 1,0,-1
 256 128 l 1,1,-1
 0 128 l 1,2,-1
 0 640 l 1,3,-1
 128 640 l 1,4,-1
 128 256 l 1,5,-1
 512 256 l 1,6,-1
 512 640 l 1,7,-1
 640 640 l 1,8,-1
 640 128 l 1,9,-1
 384 128 l 1,10,-1
 384 0 l 1,11,-1
 256 0 l 1,0,-1
EndSplineSet
EndChar

StartChar: z
Encoding: 122 122 75
Width: 768
GlyphClass: 1
Flags: W
LayerCount: 2
Fore
SplineSet
0 0 m 1,0,-1
 0 256 l 1,1,-1
 128 256 l 1,2,-1
 128 128 l 1,3,-1
 640 128 l 1,4,-1
 640 0 l 1,5,-1
 0 0 l 1,0,-1
128 256 m 1,6,-1
 128 384 l 1,7,-1
 512 384 l 1,8,-1
 512 256 l 1,9,-1
 128 256 l 1,6,-1
512 384 m 1,10,-1
 512 512 l 1,11,-1
 0 512 l 1,12,-1
 0 640 l 1,13,-1
 640 640 l 1,14,-1
 640 384 l 1,15,-1
 512 384 l 1,10,-1
EndSplineSet
EndChar

StartChar: quotedblleft
Encoding: 8220 8220 76
Width: 512
GlyphClass: 1
Flags: W
LayerCount: 2
Fore
SplineSet
0 384 m 1,0,-1
 0 640 l 1,1,-1
 128 640 l 1,2,-1
 128 384 l 1,3,-1
 0 384 l 1,0,-1
256 384 m 1,4,-1
 256 640 l 1,5,-1
 384 640 l 1,6,-1
 384 384 l 1,7,-1
 256 384 l 1,4,-1
EndSplineSet
EndChar

StartChar: quotedblright
Encoding: 8221 8221 77
Width: 512
GlyphClass: 1
Flags: W
LayerCount: 2
Fore
SplineSet
0 384 m 1,0,-1
 0 640 l 1,1,-1
 128 640 l 1,2,-1
 128 384 l 1,3,-1
 0 384 l 1,0,-1
256 384 m 1,4,-1
 256 640 l 1,5,-1
 384 640 l 1,6,-1
 384 384 l 1,7,-1
 256 384 l 1,4,-1
EndSplineSet
EndChar
